<?xml version="1.0" encoding="utf-8"?>
<!-- Generator: Adobe Illustrator 19.0.0, SVG Export Plug-In . SVG Version: 6.00 Build 0)  -->
<svg version="1.1" id="Cover_page" xmlns="http://www.w3.org/2000/svg" xmlns:xlink="http://www.w3.org/1999/xlink" x="0px" y="0px"
	 viewBox="0 0 792 52.2" style="enable-background:new 0 0 792 52.2;" xml:space="preserve">
<style type="text/css">
	.st0{display:none;opacity:0.9;fill:#1E1C18;}
	.st1{fill:none;stroke:#666766;stroke-linecap:round;stroke-miterlimit:10;}
	.st2{fill:none;}
	.st3{fill:#1F1C1D;}
	.st4{font-family:'ITCFranklinGothicStd-Med';}
	.st5{font-size:18px;}
</style>
<rect y="-519.7" class="st0" width="792" height="612"/>
<g>
	<line class="st1" x1="47.6" y1="19.3" x2="746.4" y2="19.3"/>
	<line class="st1" x1="126.7" y1="11.8" x2="126.7" y2="19.2"/>
	<line class="st1" x1="235.7" y1="11.8" x2="235.7" y2="19.2"/>
	<line class="st1" x1="341.3" y1="11.8" x2="341.3" y2="19.2"/>
	<line class="st1" x1="450.3" y1="11.8" x2="450.3" y2="19.2"/>
	<line class="st1" x1="558.5" y1="11.8" x2="558.5" y2="19.2"/>
	<line class="st1" x1="665" y1="11.8" x2="665" y2="19.2"/>
</g>
<rect x="35" y="29.3" class="st2" width="44.6" height="15.8"/>
<text transform="matrix(1 0 0 1 35.0289 41.3449)" class="st3 st4 st5">1823</text>
<rect x="116.4" y="29.3" class="st2" width="44.6" height="15.8"/>
<text transform="matrix(1 0 0 1 116.3669 41.3449)" class="st3 st4 st5">1853</text>
<rect x="224" y="29.3" class="st2" width="44.6" height="15.8"/>
<text transform="matrix(1 0 0 1 224.027 41.3449)" class="st3 st4 st5">1883</text>
<rect x="333" y="29.3" class="st2" width="44.6" height="15.8"/>
<text transform="matrix(1 0 0 1 333.0414 41.3449)" class="st3 st4 st5">1913</text>
<rect x="440.2" y="29.3" class="st2" width="44.6" height="15.8"/>
<text transform="matrix(1 0 0 1 440.2173 41.3449)" class="st3 st4 st5">1943</text>
<rect x="548.7" y="29.3" class="st2" width="44.6" height="15.8"/>
<text transform="matrix(1 0 0 1 548.7159 41.3449)" class="st3 st4 st5">1973</text>
<rect x="656.1" y="29.3" class="st2" width="44.6" height="15.8"/>
<text transform="matrix(1 0 0 1 656.1457 41.3449)" class="st3 st4 st5">2003</text>
</svg>
